<svg width="31" height="16" viewBox="0 0 31 16" fill="none" xmlns="http://www.w3.org/2000/svg">
<path d="M2.744 5.063C2.25867 5.063 1.84333 4.96033 1.498 4.755C1.15267 4.54967 0.886667 4.258 0.7 3.88C0.518 3.502 0.427 3.05167 0.427 2.529C0.427 2.137 0.478333 1.787 0.581 1.479C0.688333 1.16633 0.84 0.902666 1.036 0.688C1.23667 0.468666 1.48167 0.300666 1.771 0.184C2.06033 0.0626664 2.38467 0.00199968 2.744 0.00199968C3.03333 0.00199968 3.30867 0.0439997 3.57 0.128C3.83133 0.207333 4.05767 0.326333 4.249 0.485C4.30967 0.531666 4.34933 0.585333 4.368 0.646C4.39133 0.702 4.39367 0.758 4.375 0.814C4.361 0.865333 4.333 0.909666 4.291 0.947C4.25367 0.979666 4.207 0.996 4.151 0.996C4.095 0.996 4.032 0.972667 3.962 0.926C3.794 0.790667 3.60967 0.690333 3.409 0.625C3.20833 0.559666 2.99133 0.527 2.758 0.527C2.38933 0.527 2.07667 0.606333 1.82 0.765C1.56333 0.919 1.36967 1.14533 1.239 1.444C1.10833 1.74267 1.043 2.10433 1.043 2.529C1.043 2.95367 1.10833 3.31767 1.239 3.621C1.36967 3.91967 1.56333 4.14833 1.82 4.307C2.07667 4.461 2.38933 4.538 2.758 4.538C2.98667 4.538 3.20367 4.50533 3.409 4.44C3.61433 4.37 3.80333 4.26733 3.976 4.132C4.046 4.08533 4.109 4.06433 4.165 4.069C4.221 4.069 4.26767 4.08533 4.305 4.118C4.34233 4.15067 4.368 4.19267 4.382 4.244C4.40067 4.29533 4.40067 4.349 4.382 4.405C4.368 4.461 4.333 4.51 4.277 4.552C4.081 4.72 3.85 4.84833 3.584 4.937C3.32267 5.021 3.04267 5.063 2.744 5.063ZM7.18293 5.063C6.9636 5.063 6.74893 5.04433 6.53893 5.007C6.32893 4.96967 6.13293 4.916 5.95093 4.846C5.7736 4.776 5.6126 4.68733 5.46793 4.58C5.41193 4.538 5.37226 4.49133 5.34893 4.44C5.33026 4.384 5.3256 4.33033 5.33493 4.279C5.34893 4.223 5.37226 4.17633 5.40493 4.139C5.44226 4.10167 5.4866 4.08067 5.53793 4.076C5.58926 4.07133 5.64526 4.08767 5.70593 4.125C5.91593 4.27433 6.13993 4.384 6.37793 4.454C6.61593 4.51933 6.88426 4.552 7.18293 4.552C7.60293 4.552 7.91326 4.475 8.11393 4.321C8.31926 4.16233 8.42193 3.95467 8.42193 3.698C8.42193 3.488 8.34726 3.32467 8.19793 3.208C8.05326 3.08667 7.80826 2.991 7.46293 2.921L6.73493 2.774C6.29626 2.68067 5.96726 2.529 5.74793 2.319C5.53326 2.10433 5.42593 1.81967 5.42593 1.465C5.42593 1.24567 5.47026 1.04733 5.55893 0.87C5.6476 0.688 5.77126 0.534 5.92993 0.408C6.0886 0.277333 6.2776 0.177 6.49693 0.107C6.71626 0.0369996 6.95893 0.00199968 7.22493 0.00199968C7.51893 0.00199968 7.79193 0.0439997 8.04393 0.128C8.3006 0.207333 8.5316 0.328666 8.73693 0.492C8.78826 0.534 8.82326 0.583 8.84193 0.639C8.8606 0.690333 8.86293 0.741666 8.84893 0.793C8.83493 0.839667 8.80926 0.879333 8.77193 0.912C8.73926 0.944666 8.69493 0.963333 8.63893 0.968C8.5876 0.972666 8.52926 0.954 8.46393 0.912C8.27726 0.772 8.0836 0.671666 7.88293 0.611C7.68226 0.545666 7.4606 0.513 7.21793 0.513C6.9706 0.513 6.75593 0.550333 6.57393 0.625C6.3966 0.699667 6.2566 0.809333 6.15393 0.954C6.05593 1.094 6.00693 1.25733 6.00693 1.444C6.00693 1.668 6.0746 1.84533 6.20993 1.976C6.34993 2.10667 6.57626 2.20233 6.88893 2.263L7.61693 2.417C8.08826 2.515 8.43593 2.66433 8.65993 2.865C8.8886 3.061 9.00293 3.32933 9.00293 3.67C9.00293 3.87533 8.96093 4.06433 8.87693 4.237C8.79293 4.40967 8.6716 4.559 8.51293 4.685C8.35426 4.80633 8.16293 4.89967 7.93893 4.965C7.71493 5.03033 7.46293 5.063 7.18293 5.063ZM11.8396 5.063C11.6202 5.063 11.4056 5.04433 11.1956 5.007C10.9856 4.96967 10.7896 4.916 10.6076 4.846C10.4302 4.776 10.2692 4.68733 10.1246 4.58C10.0686 4.538 10.0289 4.49133 10.0056 4.44C9.9869 4.384 9.98224 4.33033 9.99157 4.279C10.0056 4.223 10.0289 4.17633 10.0616 4.139C10.0989 4.10167 10.1432 4.08067 10.1946 4.076C10.2459 4.07133 10.3019 4.08767 10.3626 4.125C10.5726 4.27433 10.7966 4.384 11.0346 4.454C11.2726 4.51933 11.5409 4.552 11.8396 4.552C12.2596 4.552 12.5699 4.475 12.7706 4.321C12.9759 4.16233 13.0786 3.95467 13.0786 3.698C13.0786 3.488 13.0039 3.32467 12.8546 3.208C12.7099 3.08667 12.4649 2.991 12.1196 2.921L11.3916 2.774C10.9529 2.68067 10.6239 2.529 10.4046 2.319C10.1899 2.10433 10.0826 1.81967 10.0826 1.465C10.0826 1.24567 10.1269 1.04733 10.2156 0.87C10.3042 0.688 10.4279 0.534 10.5866 0.408C10.7452 0.277333 10.9342 0.177 11.1536 0.107C11.3729 0.0369996 11.6156 0.00199968 11.8816 0.00199968C12.1756 0.00199968 12.4486 0.0439997 12.7006 0.128C12.9572 0.207333 13.1882 0.328666 13.3936 0.492C13.4449 0.534 13.4799 0.583 13.4986 0.639C13.5172 0.690333 13.5196 0.741666 13.5056 0.793C13.4916 0.839667 13.4659 0.879333 13.4286 0.912C13.3959 0.944666 13.3516 0.963333 13.2956 0.968C13.2442 0.972666 13.1859 0.954 13.1206 0.912C12.9339 0.772 12.7402 0.671666 12.5396 0.611C12.3389 0.545666 12.1172 0.513 11.8746 0.513C11.6272 0.513 11.4126 0.550333 11.2306 0.625C11.0532 0.699667 10.9132 0.809333 10.8106 0.954C10.7126 1.094 10.6636 1.25733 10.6636 1.444C10.6636 1.668 10.7312 1.84533 10.8666 1.976C11.0066 2.10667 11.2329 2.20233 11.5456 2.263L12.2736 2.417C12.7449 2.515 13.0926 2.66433 13.3166 2.865C13.5452 3.061 13.6596 3.32933 13.6596 3.67C13.6596 3.87533 13.6176 4.06433 13.5336 4.237C13.4496 4.40967 13.3282 4.559 13.1696 4.685C13.0109 4.80633 12.8196 4.89967 12.5956 4.965C12.3716 5.03033 12.1196 5.063 11.8396 5.063ZM0.889 15.049C0.805 15.049 0.739667 15.0257 0.693 14.979C0.646333 14.9277 0.623 14.8577 0.623 14.769V10.296C0.623 10.2027 0.646333 10.1327 0.693 10.086C0.739667 10.0393 0.805 10.016 0.889 10.016C0.963667 10.016 1.022 10.0323 1.064 10.065C1.11067 10.093 1.15267 10.142 1.19 10.212L3.108 13.824H2.898L4.809 10.212C4.84633 10.142 4.886 10.093 4.928 10.065C4.97 10.0323 5.03067 10.016 5.11 10.016C5.18933 10.016 5.25233 10.0393 5.299 10.086C5.34567 10.1327 5.369 10.2027 5.369 10.296V14.769C5.369 14.8577 5.34567 14.9277 5.299 14.979C5.257 15.0257 5.19167 15.049 5.103 15.049C5.019 15.049 4.95367 15.0257 4.907 14.979C4.86033 14.9277 4.837 14.8577 4.837 14.769V10.835H5.005L3.255 14.118C3.22233 14.1787 3.18733 14.223 3.15 14.251C3.11733 14.2743 3.06833 14.286 3.003 14.286C2.93767 14.286 2.88633 14.272 2.849 14.244C2.81167 14.216 2.779 14.174 2.751 14.118L0.98 10.828H1.148V14.769C1.148 14.8577 1.12467 14.9277 1.078 14.979C1.036 15.0257 0.973 15.049 0.889 15.049ZM9.01928 15.063C8.56195 15.063 8.16295 14.9603 7.82228 14.755C7.48628 14.545 7.22495 14.251 7.03828 13.873C6.85628 13.495 6.76528 13.047 6.76528 12.529C6.76528 12.137 6.81661 11.787 6.91928 11.479C7.02661 11.1663 7.17828 10.9027 7.37428 10.688C7.57028 10.4687 7.80595 10.3007 8.08128 10.184C8.36128 10.0627 8.67395 10.002 9.01928 10.002C9.48595 10.002 9.88728 10.1047 10.2233 10.31C10.5639 10.5153 10.8253 10.807 11.0073 11.185C11.1939 11.5583 11.2873 12.004 11.2873 12.522C11.2873 12.914 11.2336 13.2663 11.1263 13.579C11.0189 13.8917 10.8673 14.1577 10.6713 14.377C10.4753 14.5963 10.2373 14.7667 9.95728 14.888C9.68195 15.0047 9.36928 15.063 9.01928 15.063ZM9.01928 14.552C9.37395 14.552 9.67261 14.4727 9.91528 14.314C10.1626 14.1553 10.3516 13.9243 10.4823 13.621C10.6129 13.3177 10.6783 12.9537 10.6783 12.529C10.6783 11.8897 10.5336 11.395 10.2443 11.045C9.95961 10.6903 9.55128 10.513 9.01928 10.513C8.67395 10.513 8.37761 10.5923 8.13028 10.751C7.88761 10.9097 7.70095 11.1407 7.57028 11.444C7.43961 11.7427 7.37428 12.1043 7.37428 12.529C7.37428 13.1637 7.51895 13.6607 7.80828 14.02C8.09761 14.3747 8.50128 14.552 9.01928 14.552ZM12.9785 15C12.8758 15 12.7965 14.9743 12.7405 14.923C12.6892 14.867 12.6635 14.7877 12.6635 14.685V10.38C12.6635 10.2773 12.6892 10.2003 12.7405 10.149C12.7965 10.093 12.8758 10.065 12.9785 10.065H14.3295C15.1275 10.065 15.7435 10.275 16.1775 10.695C16.6115 11.115 16.8285 11.7263 16.8285 12.529C16.8285 12.9303 16.7725 13.285 16.6605 13.593C16.5532 13.8963 16.3922 14.153 16.1775 14.363C15.9628 14.573 15.7015 14.7317 15.3935 14.839C15.0855 14.9463 14.7308 15 14.3295 15H12.9785ZM13.2375 14.51H14.2875C14.6142 14.51 14.8965 14.468 15.1345 14.384C15.3772 14.3 15.5778 14.1763 15.7365 14.013C15.8998 13.8497 16.0212 13.6443 16.1005 13.397C16.1798 13.145 16.2195 12.8557 16.2195 12.529C16.2195 11.871 16.0585 11.3787 15.7365 11.052C15.4145 10.7207 14.9315 10.555 14.2875 10.555H13.2375V14.51ZM20.1548 15.063C19.8281 15.063 19.5411 15.021 19.2938 14.937C19.0511 14.8483 18.8458 14.72 18.6778 14.552C18.5098 14.3793 18.3838 14.167 18.2998 13.915C18.2158 13.663 18.1738 13.3737 18.1738 13.047V10.31C18.1738 10.212 18.1971 10.1397 18.2438 10.093C18.2951 10.0417 18.3675 10.016 18.4608 10.016C18.5541 10.016 18.6241 10.0417 18.6708 10.093C18.7221 10.1397 18.7478 10.212 18.7478 10.31V13.019C18.7478 13.5323 18.8668 13.9173 19.1048 14.174C19.3428 14.426 19.6928 14.552 20.1548 14.552C20.6168 14.552 20.9645 14.426 21.1978 14.174C21.4311 13.9173 21.5478 13.5323 21.5478 13.019V10.31C21.5478 10.212 21.5735 10.1397 21.6248 10.093C21.6761 10.0417 21.7485 10.016 21.8418 10.016C21.9305 10.016 21.9981 10.0417 22.0448 10.093C22.0961 10.1397 22.1218 10.212 22.1218 10.31V13.047C22.1218 13.481 22.0471 13.8497 21.8978 14.153C21.7531 14.4563 21.5338 14.685 21.2398 14.839C20.9458 14.9883 20.5841 15.063 20.1548 15.063ZM23.9456 15C23.8522 15 23.7799 14.9743 23.7286 14.923C23.6772 14.867 23.6516 14.7923 23.6516 14.699V10.331C23.6516 10.233 23.6749 10.1583 23.7216 10.107C23.7729 10.0557 23.8452 10.03 23.9386 10.03C24.0319 10.03 24.1019 10.0557 24.1486 10.107C24.1999 10.1583 24.2256 10.233 24.2256 10.331V14.496H26.5216C26.6056 14.496 26.6709 14.5193 26.7176 14.566C26.7642 14.608 26.7876 14.6687 26.7876 14.748C26.7876 14.8273 26.7642 14.8903 26.7176 14.937C26.6709 14.979 26.6056 15 26.5216 15H23.9456ZM28.1174 15C28.0147 15 27.9354 14.9743 27.8794 14.923C27.828 14.867 27.8024 14.7877 27.8024 14.685V10.38C27.8024 10.2773 27.828 10.2003 27.8794 10.149C27.9354 10.093 28.0147 10.065 28.1174 10.065H30.7214C30.8007 10.065 30.8614 10.086 30.9034 10.128C30.9454 10.17 30.9664 10.2283 30.9664 10.303C30.9664 10.3823 30.9454 10.443 30.9034 10.485C30.8614 10.527 30.8007 10.548 30.7214 10.548H28.3624V12.256H30.5744C30.6537 12.256 30.7144 12.277 30.7564 12.319C30.7984 12.3563 30.8194 12.4147 30.8194 12.494C30.8194 12.5733 30.7984 12.634 30.7564 12.676C30.7144 12.718 30.6537 12.739 30.5744 12.739H28.3624V14.517H30.7214C30.8007 14.517 30.8614 14.538 30.9034 14.58C30.9454 14.622 30.9664 14.6803 30.9664 14.755C30.9664 14.8343 30.9454 14.895 30.9034 14.937C30.8614 14.979 30.8007 15 30.7214 15H28.1174Z" fill="white"/>
</svg>
