<svg width="76" height="68" viewBox="0 0 76 68" fill="none" xmlns="http://www.w3.org/2000/svg">
<path d="M73.6078 9.65614L76 1.01225L75.8961 0.476719L52.2301 9.17569C54.7535 4.08379 53.8867 0 53.8867 0C53.8867 0 46.3291 6.73329 40.6137 6.55726C34.8985 6.38082 33.0561 4.25278 24.2924 8.15309C15.5286 12.0505 13.0527 24.014 10.5118 26.584C7.9708 29.154 0 37.5257 0 37.5257L0.0172187 37.6744L7.20367 34.4824C7.20367 34.4824 5.23242 37.073 1.045 44.9466L0.849359 44.6943L0.856781 44.7498C0.856781 44.7498 4.22216 51.925 7.52548 50.5984C7.85739 50.4638 8.23116 50.2427 8.63966 49.9523C9.96966 50.9857 11.7055 52.0012 13.6221 52.2808C13.6221 52.2808 12.3248 50.1768 11.2424 47.7828C11.5345 47.5203 11.8343 47.2473 12.1389 46.9711L11.9976 47.1094L14.7339 48.5118L14.432 44.9225C14.4418 44.9155 14.4492 44.9051 14.459 44.8981L17.1484 46.2765L16.8141 43.0119C17.1499 42.7664 17.49 42.5326 17.8342 42.3107L20.6376 27.5176L32.229 16.4863L31.3078 19.7202C28.9578 27.7835 24.545 29.687 24.545 29.687L22.7026 30.6612C21.3334 32.9205 20.7563 33.4767 20.2861 41.0599C21.3904 40.6731 22.4452 40.5795 23.4009 40.939C28.3536 42.8011 30.0696 51.1273 28.7348 53.4314C28.4005 54.0084 27.6058 54.9929 26.603 56.1505H24.5922L24.5649 58.4235C24.4955 58.4997 24.4263 58.5722 24.3592 58.648H22.3137L22.2891 60.8659C22.1083 61.0597 21.9275 61.2461 21.7544 61.4292C19.8327 61.4843 17.3984 59.1454 17.3984 59.1454C17.3984 61.2739 18.669 64.5488 18.669 64.5488C18.669 64.5488 18.753 64.4937 18.894 64.3968C18.7702 64.5247 18.701 64.5939 18.701 64.5939C18.701 64.5939 23.8441 69.3785 27.0833 67.6062C29.963 66.0307 37.4193 57.8291 43.8553 53.9462L63.3312 46.788L65.8991 37.505L51.0563 42.9598V34.624L68.4721 28.2221L71.0401 18.9391L51.0613 26.2841V17.9438L73.6078 9.65614Z" fill="#D4D4D8"/>
</svg>
