<svg width="17" height="25" viewBox="0 0 17 25" fill="none" xmlns="http://www.w3.org/2000/svg">
<path d="M12.7506 8.33496C13.8776 8.33496 14.9585 7.89589 15.7554 7.11433C16.5523 6.33278 17 5.27276 17 4.16748C17 3.0622 16.5523 2.00218 15.7554 1.22063C14.9585 0.439073 13.8776 0 12.7506 0L4.25187 0C3.12552 0 2.04531 0.438815 1.24886 1.21991C0.452419 2.00101 0.00497992 3.0604 0.00497992 4.16504C0.00497992 5.26968 0.452419 6.32907 1.24886 7.11017C2.04531 7.89126 3.12552 8.33008 4.25187 8.33008C3.12486 8.33008 2.04402 8.76915 1.2471 9.5507C0.450192 10.3323 0.00249058 11.3923 0.00249058 12.4976C0.00249058 13.6028 0.450192 14.6629 1.2471 15.4444C2.04402 16.226 3.12486 16.665 4.25187 16.665C3.41142 16.6646 2.5897 16.9085 1.89062 17.366C1.19154 17.8236 0.6465 18.4741 0.32442 19.2354C0.00233966 19.9968 -0.0823126 20.8347 0.0811676 21.6432C0.244648 22.4517 0.648918 23.1945 1.24286 23.7776C1.83679 24.3608 2.59372 24.7582 3.41793 24.9194C4.24213 25.0807 5.09658 24.9987 5.87324 24.6837C6.64991 24.3687 7.31389 23.8349 7.78122 23.1499C8.24856 22.4648 8.49826 21.6592 8.49876 20.835V8.33496H12.7506ZM12.7506 8.33496C11.9107 8.33496 11.0896 8.57924 10.3912 9.0369C9.69278 9.49456 9.14845 10.145 8.82701 10.9061C8.50557 11.6672 8.42147 12.5046 8.58534 13.3126C8.7492 14.1205 9.15368 14.8626 9.74762 15.4451C10.3416 16.0276 11.0983 16.4243 11.9221 16.585C12.7459 16.7457 13.5998 16.6632 14.3758 16.348C15.1519 16.0328 15.8151 15.4989 16.2818 14.814C16.7484 14.129 16.9975 13.3238 16.9975 12.5C16.9974 11.3954 16.5499 10.3361 15.7535 9.55502C14.9571 8.77395 13.8769 8.33509 12.7506 8.33496Z" fill="#CBD5E1"/>
</svg>
