<svg width="25" height="26" viewBox="0 0 25 26" fill="none" xmlns="http://www.w3.org/2000/svg">
<path d="M22.2233 0.766983H3.00002C1.55281 0.766983 0.378662 1.94113 0.378662 3.38834V22.6116C0.378662 24.0589 1.55281 25.233 3.00002 25.233H22.2233C23.6705 25.233 24.8447 24.0589 24.8447 22.6116V3.38834C24.8447 1.94113 23.6705 0.766983 22.2233 0.766983ZM13.693 19.8483C13.693 22.2294 12.2949 23.3161 10.2579 23.3161C8.4175 23.3161 7.35257 22.3659 6.80645 21.2136L8.67963 20.0831C9.04007 20.7221 9.36774 21.2627 10.1596 21.2627C10.9132 21.2627 11.3938 20.9678 11.3938 19.8155V12.0006H13.693V19.8483ZM19.1323 23.3161C16.997 23.3161 15.6153 22.3004 14.9436 20.9678L16.8168 19.8865C17.3083 20.6893 17.9527 21.2846 19.0832 21.2846C20.0334 21.2846 20.645 20.8095 20.645 20.1487C20.645 19.3622 20.0225 19.0837 18.9685 18.6195L18.395 18.3738C16.7348 17.6693 15.6372 16.7791 15.6372 14.9059C15.6372 13.1802 16.9533 11.8695 19.0012 11.8695C20.4648 11.8695 21.5134 12.3774 22.267 13.7099L20.4757 14.8568C20.0825 14.1523 19.6566 13.8738 18.9958 13.8738C18.324 13.8738 17.8981 14.2997 17.8981 14.8568C17.8981 15.5449 18.3241 15.8234 19.3125 16.2548L19.8859 16.5006C21.841 17.3362 22.9387 18.1936 22.9387 20.1159C22.9387 22.1802 21.3113 23.3161 19.1323 23.3161Z" fill="#CBD5E1"/>
</svg>
