<svg width="71" height="71" viewBox="0 0 71 71" fill="none" xmlns="http://www.w3.org/2000/svg">
<path d="M35.5 71C55.1061 71 71 55.1061 71 35.5C71 15.8939 55.1061 0 35.5 0C15.8939 0 0 15.8939 0 35.5C0 55.1061 15.8939 71 35.5 71Z" fill="#D4D4D8"/>
<path d="M44.9893 31.1623C42.747 21.266 37.4477 18.0121 36.877 16.7689C36.253 15.8918 35.6207 14.3317 35.6207 14.3317C35.6103 14.3054 35.5936 14.2589 35.5742 14.2139C35.5097 15.091 35.4764 15.4293 34.6472 16.3141C33.3631 17.318 26.7748 22.8462 26.2388 34.0897C25.7389 44.5761 33.8138 50.8246 34.9058 51.6213L35.0299 51.7094V51.7017C35.0369 51.7544 35.3766 54.1978 35.6151 56.7868H36.4707C36.6715 54.9567 36.9724 53.139 37.3721 51.3419L37.4414 51.2968C37.9299 50.9466 38.3956 50.5656 38.8358 50.1562L38.8857 50.1112C41.2071 47.9666 45.3804 43.0063 45.3395 35.0979C45.3308 33.7786 45.2137 32.4624 44.9893 31.1623ZM35.5243 45.7007C35.5243 45.7007 35.5243 30.9932 36.0096 30.9959C36.3882 30.9959 36.8784 49.9669 36.8784 49.9669C36.2045 49.8858 35.5243 46.8447 35.5243 45.7007Z" fill="#18181B"/>
</svg>
