<svg width="28" height="29" viewBox="0 0 28 29" fill="none" xmlns="http://www.w3.org/2000/svg">
<path d="M20.6728 26.4453C20.5706 26.4993 20.5763 26.5211 20.6785 26.4694C20.7085 26.4566 20.7357 26.4383 20.7589 26.4155C20.7589 26.3971 20.7566 26.3994 20.6728 26.4453ZM20.8772 26.3374C20.829 26.3753 20.829 26.3776 20.8876 26.3477C20.9197 26.3316 20.9473 26.3132 20.9473 26.3075C20.9473 26.2857 20.9335 26.2914 20.8772 26.3374ZM21.0116 26.2558C20.9634 26.2937 20.9634 26.296 21.022 26.2661C21.0541 26.2501 21.0817 26.2317 21.0817 26.2259C21.0817 26.2041 21.0679 26.2099 21.0116 26.2558ZM21.146 26.1754C21.0978 26.2133 21.0978 26.2156 21.1563 26.1857C21.1885 26.1697 21.2161 26.1513 21.2161 26.1455C21.2161 26.1237 21.2023 26.1295 21.146 26.1754ZM21.3321 26.0548C21.2379 26.1145 21.208 26.1547 21.2919 26.1088C21.3516 26.0743 21.4481 26.0008 21.432 25.9985C21.3968 26.0136 21.3633 26.0325 21.3321 26.0548ZM13.0931 0.606042C13.0333 0.611786 12.845 0.630163 12.675 0.643947C8.76048 0.996572 5.09295 3.10888 2.77044 6.35602C1.48648 8.13826 0.651897 10.2042 0.337674 12.3782C0.227406 13.1352 0.213623 13.3591 0.213623 14.386C0.213623 15.4129 0.227406 15.6357 0.337674 16.3938C1.08657 21.5694 4.77018 25.9181 9.76552 27.5296C10.6603 27.8179 11.6033 28.0143 12.675 28.1326C13.0931 28.1786 14.8975 28.1786 15.3156 28.1326C17.1661 27.9282 18.7351 27.4699 20.2811 26.6808C20.5177 26.559 20.5637 26.5269 20.5315 26.5005C19.7763 25.5026 19.0282 24.4995 18.2871 23.4911L16.0829 20.5139L13.3216 16.4271C12.4035 15.0596 11.4766 13.6981 10.5408 12.3426C10.5305 12.3403 10.519 14.1563 10.5144 16.3731C10.5064 20.2554 10.5041 20.4116 10.4547 20.5035C10.4078 20.6109 10.3238 20.6977 10.2181 20.7482C10.1319 20.7918 10.0561 20.7999 9.64951 20.7999H9.18317L9.05912 20.7218C8.98258 20.6735 8.92032 20.6057 8.87879 20.5254L8.8225 20.4036L8.82825 15.0017L8.83629 9.59741L8.92014 9.49289C8.97647 9.4267 9.04415 9.37108 9.12 9.32864C9.23026 9.27465 9.27391 9.26891 9.74025 9.26891C10.2904 9.26891 10.3812 9.29073 10.5248 9.44694C11.6425 11.1104 12.751 12.7802 13.85 14.4561C15.6395 17.1691 18.0849 20.8734 19.2875 22.6928L21.4699 25.9985L21.5802 25.9261C22.6303 25.2276 23.5825 24.3921 24.4115 23.4417C26.1482 21.4542 27.2745 19.0078 27.6552 16.3961C27.7655 15.6391 27.7793 15.4152 27.7793 14.3883C27.7793 13.3614 27.7655 13.1386 27.6552 12.3805C26.9063 7.20484 23.2227 2.85618 18.2274 1.24467C17.2939 0.947466 16.3325 0.746184 15.3581 0.643947C15.0997 0.617529 13.3182 0.587665 13.0954 0.609488L13.0931 0.606042ZM18.7351 8.9427C18.7993 8.97499 18.8565 9.01975 18.9032 9.07438C18.9499 9.12901 18.9853 9.19241 19.0073 9.26087C19.0291 9.33093 19.0337 10.8287 19.0291 14.2045L19.0211 19.0494L18.1665 17.74L17.3096 16.4305V12.9089C17.3096 10.6323 17.32 9.35276 17.3361 9.29073C17.3555 9.21915 17.3891 9.15219 17.4349 9.0938C17.4807 9.0354 17.5377 8.98676 17.6025 8.95074C17.7128 8.89446 17.753 8.88872 18.1768 8.88872C18.5754 8.88872 18.6455 8.89446 18.7351 8.9427Z" fill="#CBD5E1"/>
</svg>
