<svg width="25" height="29" viewBox="0 0 25 29" fill="none" xmlns="http://www.w3.org/2000/svg">
<path d="M12.4944 28.1977C12.1195 28.1977 11.739 28.097 11.4089 27.9068L7.95658 25.8645C7.44181 25.5735 7.6936 25.4728 7.86146 25.4169C8.54969 25.1763 8.68957 25.1259 9.42256 24.7062C9.5009 24.6615 9.60161 24.6783 9.67995 24.7286L12.3321 26.3009C12.4273 26.3569 12.5615 26.3569 12.6511 26.3009L22.9857 20.3363C23.0808 20.2803 23.1423 20.1684 23.1423 20.0565V8.12724C23.1423 8.00974 23.0808 7.90342 22.9801 7.84188L12.6511 1.88283C12.556 1.82688 12.4273 1.82688 12.3321 1.88283L2.00873 7.84747C1.90801 7.90342 1.84646 8.01533 1.84646 8.13283V20.0565C1.84646 20.1684 1.90801 20.2803 2.00873 20.3307L4.83997 21.9645C6.37869 22.7311 7.31871 21.8302 7.31871 20.9182V9.14559C7.31871 8.97773 7.453 8.84904 7.62086 8.84904H8.93017C9.09244 8.84904 9.23232 8.97773 9.23232 9.14559V20.9238C9.23232 22.9717 8.11325 24.1467 6.17167 24.1467C5.57296 24.1467 5.10295 24.1467 3.79364 23.4977L1.0855 21.9366C0.414055 21.5505 0 20.8287 0 20.0509V8.12724C0 7.35508 0.414055 6.62769 1.0855 6.24161L11.4089 0.27697C12.0636 -0.0923232 12.9308 -0.0923232 13.5799 0.27697L23.9145 6.2472C24.5859 6.63328 25 7.35508 25 8.13283V20.0565C25 20.8287 24.5859 21.5505 23.9145 21.9421L13.5799 27.9068C13.2498 28.097 12.8749 28.1977 12.4944 28.1977ZM20.8371 16.4419C20.8371 14.2094 19.3263 13.6163 16.1538 13.1966C12.942 12.7714 12.6175 12.5532 12.6175 11.8034C12.6175 11.1823 12.8917 10.3542 15.2697 10.3542C17.3903 10.3542 18.1737 10.813 18.4982 12.2454C18.5262 12.3797 18.6493 12.4804 18.7892 12.4804H20.132C20.216 12.4804 20.2943 12.4468 20.3503 12.3853C20.4062 12.3237 20.4342 12.2398 20.4286 12.1559C20.2216 9.68834 18.5821 8.54129 15.2697 8.54129C12.3209 8.54129 10.564 9.78346 10.564 11.8705C10.564 14.131 12.3154 14.7577 15.141 15.0375C18.5262 15.3676 18.7892 15.8656 18.7892 16.5314C18.7892 17.6841 17.8603 18.1765 15.6838 18.1765C12.9476 18.1765 12.3489 17.4883 12.1475 16.1286C12.1251 15.9831 12.002 15.8768 11.8509 15.8768H10.5137C10.3458 15.8768 10.2171 16.0111 10.2171 16.1733C10.2171 17.9135 11.1627 19.9894 15.6893 19.9894C18.957 19.9838 20.8371 18.6912 20.8371 16.4419Z" fill="#CBD5E1"/>
</svg>
