<svg width="27" height="14" viewBox="0 0 27 14" fill="none" xmlns="http://www.w3.org/2000/svg">
<path d="M13.5 0.698752C20.7309 0.698752 26.2913 3.70172 26.2913 7C26.2913 10.2983 20.7267 13.3012 13.5 13.3012C6.26906 13.3012 0.70875 10.2983 0.70875 7C0.70875 3.70172 6.27328 0.698752 13.5 0.698752ZM13.5 0C6.04547 0 0 3.13191 0 7C0 10.8681 6.04547 14 13.5 14C20.9545 14 27 10.8681 27 7C27 3.13191 20.9545 0 13.5 0ZM9.20531 6.4385C8.87203 8.123 7.695 7.94831 6.24797 7.94831L6.82594 5.01188C8.42906 5.01188 9.5175 4.84135 9.20531 6.4385ZM4.10906 10.9222H5.65734L6.02438 9.05882C7.75828 9.05882 8.83406 9.1836 9.82969 8.26441C10.9308 7.26619 11.2177 5.4902 10.433 4.60012C10.0238 4.13428 9.36563 3.90553 8.47125 3.90553H5.48859L4.10906 10.9222ZM11.9433 2.03803H13.4831L13.1161 3.90137C14.445 3.90137 15.6769 3.8057 16.2717 4.34641C16.8961 4.91206 16.5966 5.63577 15.9216 9.05051H14.3606C15.0103 5.74807 15.1327 5.47356 14.8964 5.22401C14.6686 4.98277 14.1497 5.03268 12.8967 5.03268L12.1036 9.05051H10.5638L11.9433 2.03803ZM21.3047 6.4385C20.9672 8.14795 19.7564 7.94831 18.3473 7.94831L18.9253 5.01188C20.5369 5.01188 21.6169 4.84135 21.3047 6.4385ZM16.2084 10.9222H17.7609L18.128 9.05882C19.9505 9.05882 20.9588 9.1628 21.9333 8.26441C23.0344 7.26619 23.3213 5.4902 22.5366 4.60012C22.1273 4.13428 21.4692 3.90553 20.5748 3.90553H17.5922L16.2084 10.9222Z" fill="#CBD5E1"/>
</svg>
