<svg width="30" height="28" viewBox="0 0 30 28" fill="none" xmlns="http://www.w3.org/2000/svg">
<path d="M24.156 9.4222C23.8447 9.31766 23.5334 9.21893 23.2221 9.12601C23.274 8.91113 23.3201 8.69625 23.3662 8.48137C24.0753 5.02004 23.6084 2.2382 22.0346 1.3206C20.5185 0.443655 18.0455 1.35545 15.5437 3.55072C15.2959 3.7656 15.0537 3.9921 14.8232 4.21859C14.6675 4.06759 14.5061 3.9166 14.3447 3.77141C11.7218 1.42514 9.09318 0.437848 7.51946 1.36126C6.00914 2.24401 5.55951 4.86324 6.19361 8.13872C6.25702 8.46394 6.32619 8.78336 6.4069 9.10859C6.03797 9.21312 5.6748 9.32928 5.33469 9.45123C2.25641 10.5256 0.048584 12.2215 0.048584 13.9754C0.048584 15.7873 2.40053 17.6051 5.59986 18.7085C5.85926 18.7957 6.11867 18.8828 6.38384 18.9583C6.29737 19.3067 6.22243 19.6494 6.15326 20.0036C5.54798 23.2269 6.02067 25.7822 7.53099 26.6591C9.08742 27.5651 11.7045 26.6359 14.2525 24.3884C14.4542 24.2083 14.656 24.0225 14.8577 23.825C15.1114 24.0748 15.3766 24.3129 15.6417 24.5452C18.109 26.6824 20.5474 27.5477 22.0519 26.6708C23.6084 25.7648 24.1156 23.0178 23.4585 19.6726C23.4066 19.4171 23.3489 19.1557 23.2855 18.8886C23.47 18.8363 23.6487 18.7782 23.8274 18.7202C27.1536 17.6109 29.5631 15.8164 29.5631 13.9754C29.5631 12.2157 27.2919 10.5082 24.156 9.4222ZM16.3565 4.49155C18.5009 2.60989 20.5013 1.87232 21.4121 2.40081C22.3863 2.96415 22.761 5.24073 22.1499 8.23164C22.1096 8.4291 22.0692 8.62075 22.0173 8.8124C20.7376 8.52202 19.4406 8.31295 18.1378 8.1968C17.3884 7.11658 16.5698 6.08283 15.6821 5.11296C15.9069 4.89808 16.1259 4.69482 16.3565 4.49155ZM9.68693 16.9895C9.98093 17.4948 10.2807 18 10.5977 18.4937C9.69846 18.3949 8.80496 18.2497 7.92298 18.0581C8.17662 17.2218 8.49367 16.3565 8.8626 15.4737C9.12777 15.9848 9.39871 16.49 9.68693 16.9895ZM7.94027 10.003C8.77037 9.81711 9.65235 9.66612 10.5689 9.54996C10.2634 10.032 9.96363 10.5256 9.68117 11.0251C9.39871 11.5187 9.12201 12.024 8.8626 12.5351C8.49943 11.6697 8.19391 10.8218 7.94027 10.003ZM9.51976 14.0044C9.90022 13.2029 10.3153 12.4189 10.7534 11.6465C11.1915 10.8741 11.6642 10.1249 12.1599 9.38735C13.0246 9.32347 13.9066 9.28862 14.8059 9.28862C15.7051 9.28862 16.5929 9.32347 17.4518 9.38735C17.9418 10.1191 18.4087 10.8683 18.8526 11.6349C19.2965 12.4015 19.7115 13.1855 20.1035 13.9812C19.7173 14.7826 19.3022 15.5724 18.8584 16.3507C18.4202 17.1231 17.9533 17.8722 17.4633 18.6156C16.6044 18.6795 15.7109 18.7085 14.8059 18.7085C13.9008 18.7085 13.0246 18.6795 12.1772 18.6272C11.6757 17.8897 11.203 17.1347 10.7591 16.3623C10.3153 15.5899 9.90599 14.8058 9.51976 14.0044ZM19.9306 16.9779C20.2246 16.4668 20.5013 15.9499 20.7722 15.4273C21.1411 16.2694 21.4639 17.1231 21.7464 18C20.8529 18.2033 19.9479 18.3601 19.0371 18.4646C19.3483 17.9768 19.6423 17.4773 19.9306 16.9779ZM20.7607 12.5351C20.4897 12.024 20.213 11.5129 19.9248 11.0135C19.6423 10.5198 19.3483 10.032 19.0428 9.54996C19.9709 9.66612 20.8587 9.82292 21.6888 10.0146C21.4236 10.8741 21.1123 11.7104 20.7607 12.5351ZM14.8174 6.00152C15.4227 6.66359 15.9934 7.3605 16.5237 8.08064C15.3823 8.02838 14.2352 8.02838 13.0938 8.08064C13.6587 7.33146 14.2409 6.63455 14.8174 6.00152ZM8.1305 2.44147C9.09895 1.87232 11.2491 2.68539 13.5146 4.70643C13.6587 4.8342 13.8028 4.97358 13.9527 5.11296C13.0592 6.08283 12.2349 7.11658 11.4797 8.1968C10.1769 8.31295 8.88566 8.51621 7.60593 8.80078C7.53099 8.5046 7.46758 8.2026 7.40417 7.90061C6.8623 5.08973 7.2197 2.96996 8.1305 2.44147ZM6.71818 17.7503C6.47607 17.6806 6.23972 17.6051 6.00338 17.5238C4.77553 17.1347 3.3805 16.5191 2.3717 15.7118C1.78948 15.3053 1.39749 14.6781 1.28797 13.9754C1.28797 12.9126 3.10957 11.5536 5.73821 10.6302C6.06679 10.514 6.40113 10.4095 6.73548 10.3108C7.12747 11.571 7.60016 12.808 8.14779 14.0044C7.5944 15.2182 7.11594 16.4726 6.71818 17.7503ZM13.4397 23.4417C12.4885 24.3187 11.3875 25.0156 10.1884 25.4918C9.54858 25.7996 8.81072 25.8287 8.15356 25.5673C7.23699 25.033 6.85653 22.9829 7.37534 20.2243C7.43875 19.8991 7.50793 19.5739 7.58863 19.2545C8.87989 19.5332 10.1827 19.7249 11.5028 19.8236C12.2637 20.9096 13.0996 21.9492 13.9931 22.9249C13.8086 23.1049 13.6241 23.2791 13.4397 23.4417ZM14.852 22.0305C14.264 21.3917 13.676 20.6831 13.1053 19.9223C13.6587 19.9456 14.2294 19.9572 14.8059 19.9572C15.3996 19.9572 15.9818 19.9456 16.5583 19.9165C16.028 20.6541 15.4573 21.3568 14.852 22.0305ZM22.3863 23.7728C22.3344 24.4813 21.9885 25.1434 21.4351 25.5905C20.5185 26.1248 18.5644 25.4279 16.4545 23.6043C16.2124 23.3953 15.9703 23.1688 15.7224 22.9365C16.6044 21.955 17.4172 20.9154 18.1551 19.8236C19.4752 19.7133 20.7895 19.51 22.0865 19.2138C22.1442 19.4519 22.196 19.69 22.2422 19.9223C22.5246 21.1768 22.5707 22.4835 22.3863 23.7728ZM23.4354 17.5296C23.274 17.5819 23.1126 17.6341 22.9454 17.6806C22.5419 16.4145 22.0462 15.1775 21.4755 13.9754C22.0289 12.7906 22.4958 11.571 22.8878 10.3224C23.1875 10.4095 23.4758 10.5024 23.7525 10.5953C26.4388 11.5245 28.3238 12.9068 28.3238 13.9637C28.3238 15.102 26.3119 16.5713 23.4354 17.5296ZM14.8059 16.6585C16.2643 16.6585 17.446 15.4679 17.446 13.9986C17.446 12.5293 16.2643 11.3387 14.8059 11.3387C13.3474 11.3387 12.1657 12.5293 12.1657 13.9986C12.1657 15.4679 13.3474 16.6585 14.8059 16.6585Z" fill="#CBD5E1"/>
</svg>
