<svg width="30" height="33" viewBox="0 0 30 33" fill="none" xmlns="http://www.w3.org/2000/svg">
<path d="M24.1559 9.4222C23.8446 9.31766 23.5334 9.21893 23.2221 9.12601C23.2739 8.91113 23.3201 8.69625 23.3662 8.48137C24.0752 5.02004 23.6083 2.2382 22.0346 1.3206C20.5185 0.443655 18.0455 1.35545 15.5437 3.55072C15.2958 3.7656 15.0537 3.9921 14.8231 4.21859C14.6675 4.06759 14.506 3.9166 14.3446 3.77141C11.7218 1.42514 9.09312 0.437848 7.5194 1.36126C6.00908 2.24401 5.55944 4.86324 6.19355 8.13872C6.25696 8.46394 6.32613 8.78336 6.40684 9.10859C6.0379 9.21312 5.67474 9.32928 5.33463 9.45123C2.25635 10.5256 0.0485229 12.2215 0.0485229 13.9754C0.0485229 15.7873 2.40046 17.6051 5.5998 18.7085C5.8592 18.7957 6.11861 18.8828 6.38378 18.9583C6.29731 19.3067 6.22237 19.6494 6.1532 20.0036C5.54792 23.2269 6.02061 25.7822 7.53093 26.6591C9.08736 27.5651 11.7045 26.6359 14.2524 24.3884C14.4542 24.2083 14.6559 24.0225 14.8577 23.825C15.1113 24.0748 15.3765 24.3129 15.6417 24.5452C18.1089 26.6824 20.5473 27.5477 22.0519 26.6708C23.6083 25.7648 24.1156 23.0178 23.4584 19.6726C23.4065 19.4171 23.3489 19.1557 23.2855 18.8886C23.4699 18.8363 23.6486 18.7782 23.8273 18.7202C27.1535 17.6109 29.5631 15.8164 29.5631 13.9754C29.5631 12.2157 27.2918 10.5082 24.1559 9.4222ZM16.3565 4.49155C18.5009 2.60989 20.5012 1.87232 21.412 2.40081C22.3862 2.96415 22.7609 5.24073 22.1499 8.23164C22.1095 8.4291 22.0692 8.62075 22.0173 8.8124C20.7375 8.52202 19.4405 8.31295 18.1377 8.1968C17.3883 7.11658 16.5698 6.08283 15.682 5.11296C15.9068 4.89808 16.1259 4.69482 16.3565 4.49155ZM9.68687 16.9895C9.98086 17.4948 10.2806 18 10.5977 18.4937C9.6984 18.3949 8.80489 18.2497 7.92292 18.0581C8.17656 17.2218 8.49361 16.3565 8.86254 15.4737C9.12771 15.9848 9.39864 16.49 9.68687 16.9895ZM7.94021 10.003C8.77031 9.81711 9.65228 9.66612 10.5689 9.54996C10.2633 10.032 9.96357 10.5256 9.68111 11.0251C9.39864 11.5187 9.12194 12.024 8.86254 12.5351C8.49937 11.6697 8.19385 10.8218 7.94021 10.003ZM9.5197 14.0044C9.90016 13.2029 10.3152 12.4189 10.7533 11.6465C11.1914 10.8741 11.6641 10.1249 12.1599 9.38735C13.0246 9.32347 13.9065 9.28862 14.8058 9.28862C15.7051 9.28862 16.5928 9.32347 17.4517 9.38735C17.9417 10.1191 18.4087 10.8683 18.8525 11.6349C19.2964 12.4015 19.7114 13.1855 20.1034 13.9812C19.7172 14.7826 19.3022 15.5724 18.8583 16.3507C18.4202 17.1231 17.9533 17.8722 17.4633 18.6156C16.6043 18.6795 15.7108 18.7085 14.8058 18.7085C13.9008 18.7085 13.0246 18.6795 12.1772 18.6272C11.6756 17.8897 11.203 17.1347 10.7591 16.3623C10.3152 15.5899 9.90593 14.8058 9.5197 14.0044ZM19.9305 16.9779C20.2245 16.4668 20.5012 15.9499 20.7721 15.4273C21.1411 16.2694 21.4639 17.1231 21.7463 18C20.8528 18.2033 19.9478 18.3601 19.037 18.4646C19.3483 17.9768 19.6423 17.4773 19.9305 16.9779ZM20.7606 12.5351C20.4897 12.024 20.213 11.5129 19.9247 11.0135C19.6423 10.5198 19.3483 10.032 19.0428 9.54996C19.9709 9.66612 20.8586 9.82292 21.6887 10.0146C21.4235 10.8741 21.1122 11.7104 20.7606 12.5351ZM14.8173 6.00152C15.4226 6.66359 15.9933 7.3605 16.5236 8.08064C15.3823 8.02838 14.2351 8.02838 13.0937 8.08064C13.6587 7.33146 14.2409 6.63455 14.8173 6.00152ZM8.13044 2.44147C9.09889 1.87232 11.2491 2.68539 13.5145 4.70643C13.6587 4.8342 13.8028 4.97358 13.9526 5.11296C13.0591 6.08283 12.2348 7.11658 11.4797 8.1968C10.1769 8.31295 8.8856 8.51621 7.60587 8.80078C7.53093 8.5046 7.46752 8.2026 7.40411 7.90061C6.86224 5.08973 7.21964 2.96996 8.13044 2.44147ZM6.71812 17.7503C6.47601 17.6806 6.23966 17.6051 6.00332 17.5238C4.77547 17.1347 3.38044 16.5191 2.37164 15.7118C1.78942 15.3053 1.39743 14.6781 1.2879 13.9754C1.2879 12.9126 3.10951 11.5536 5.73815 10.6302C6.06673 10.514 6.40107 10.4095 6.73542 10.3108C7.12741 11.571 7.6001 12.808 8.14773 14.0044C7.59434 15.2182 7.11588 16.4726 6.71812 17.7503ZM13.4396 23.4417C12.4885 24.3187 11.3874 25.0156 10.1884 25.4918C9.54852 25.7996 8.81066 25.8287 8.1535 25.5673C7.23693 25.033 6.85647 22.9829 7.37528 20.2243C7.43869 19.8991 7.50787 19.5739 7.58857 19.2545C8.87983 19.5332 10.1826 19.7249 11.5027 19.8236C12.2636 20.9096 13.0995 21.9492 13.993 22.9249C13.8085 23.1049 13.6241 23.2791 13.4396 23.4417ZM14.8519 22.0305C14.2639 21.3917 13.676 20.6831 13.1053 19.9223C13.6587 19.9456 14.2293 19.9572 14.8058 19.9572C15.3996 19.9572 15.9818 19.9456 16.5582 19.9165C16.0279 20.6541 15.4572 21.3568 14.8519 22.0305ZM22.3862 23.7728C22.3343 24.4813 21.9884 25.1434 21.4351 25.5905C20.5185 26.1248 18.5643 25.4279 16.4545 23.6043C16.2124 23.3953 15.9702 23.1688 15.7224 22.9365C16.6043 21.955 17.4172 20.9154 18.155 19.8236C19.4751 19.7133 20.7894 19.51 22.0864 19.2138C22.1441 19.4519 22.196 19.69 22.2421 19.9223C22.5246 21.1768 22.5707 22.4835 22.3862 23.7728ZM23.4354 17.5296C23.2739 17.5819 23.1125 17.6341 22.9454 17.6806C22.5418 16.4145 22.0461 15.1775 21.4754 13.9754C22.0288 12.7906 22.4957 11.571 22.8877 10.3224C23.1875 10.4095 23.4757 10.5024 23.7524 10.5953C26.4387 11.5245 28.3237 12.9068 28.3237 13.9637C28.3237 15.102 26.3119 16.5713 23.4354 17.5296ZM14.8058 16.6585C16.2642 16.6585 17.446 15.4679 17.446 13.9986C17.446 12.5293 16.2642 11.3387 14.8058 11.3387C13.3474 11.3387 12.1656 12.5293 12.1656 13.9986C12.1656 15.4679 13.3474 16.6585 14.8058 16.6585Z" fill="#CBD5E1"/>
<path d="M6.69641 32.035C6.63307 32.035 6.58474 32.0183 6.55141 31.985C6.51807 31.9483 6.50141 31.8967 6.50141 31.83V28.65C6.50141 28.5833 6.51807 28.5317 6.55141 28.495C6.58474 28.4583 6.62807 28.44 6.68141 28.44C6.73474 28.44 6.77307 28.45 6.79641 28.47C6.82307 28.4867 6.85307 28.5183 6.88641 28.565L9.06641 31.47H8.94641V28.64C8.94641 28.5767 8.96307 28.5283 8.99641 28.495C9.02974 28.4583 9.07807 28.44 9.14141 28.44C9.20141 28.44 9.24641 28.4583 9.27641 28.495C9.30974 28.5283 9.32641 28.5767 9.32641 28.64V31.835C9.32641 31.8983 9.31141 31.9483 9.28141 31.985C9.25474 32.0183 9.21474 32.035 9.16141 32.035C9.11141 32.035 9.07141 32.025 9.04141 32.005C9.01141 31.985 8.97974 31.9533 8.94641 31.91L6.77141 29.005H6.88641V31.83C6.88641 31.8967 6.86974 31.9483 6.83641 31.985C6.80307 32.0183 6.75641 32.035 6.69641 32.035ZM10.3776 32.035C10.3242 32.035 10.2809 32.0233 10.2476 32C10.2176 31.9733 10.1992 31.94 10.1926 31.9C10.1892 31.8567 10.1992 31.8083 10.2226 31.755L11.5976 28.625C11.6276 28.5583 11.6626 28.5117 11.7026 28.485C11.7459 28.455 11.7926 28.44 11.8426 28.44C11.8926 28.44 11.9376 28.455 11.9776 28.485C12.0209 28.5117 12.0559 28.5583 12.0826 28.625L13.4626 31.755C13.4892 31.8083 13.4992 31.8567 13.4926 31.9C13.4892 31.9433 13.4726 31.9767 13.4426 32C13.4126 32.0233 13.3709 32.035 13.3176 32.035C13.2576 32.035 13.2092 32.02 13.1726 31.99C13.1359 31.9567 13.1059 31.91 13.0826 31.85L12.7126 30.995L12.9126 31.1H10.7626L10.9676 30.995L10.6026 31.85C10.5726 31.9133 10.5409 31.96 10.5076 31.99C10.4742 32.02 10.4309 32.035 10.3776 32.035ZM11.8376 28.955L11.0326 30.85L10.9126 30.755H12.7626L12.6526 30.85L11.8476 28.955H11.8376ZM15.0343 32.035C14.971 32.035 14.921 32.0167 14.8843 31.98C14.8476 31.94 14.8293 31.8867 14.8293 31.82V28.83H13.7043C13.6443 28.83 13.5976 28.8133 13.5643 28.78C13.531 28.7467 13.5143 28.7033 13.5143 28.65C13.5143 28.5933 13.531 28.55 13.5643 28.52C13.5976 28.49 13.6443 28.475 13.7043 28.475H16.3693C16.4293 28.475 16.476 28.49 16.5093 28.52C16.5426 28.55 16.5593 28.5933 16.5593 28.65C16.5593 28.7067 16.5426 28.7517 16.5093 28.785C16.476 28.815 16.4293 28.83 16.3693 28.83H15.2443V31.82C15.2443 31.8867 15.226 31.94 15.1893 31.98C15.156 32.0167 15.1043 32.035 15.0343 32.035ZM17.4271 32.035C17.3604 32.035 17.3088 32.0167 17.2721 31.98C17.2388 31.94 17.2221 31.8867 17.2221 31.82V28.655C17.2221 28.585 17.2388 28.5317 17.2721 28.495C17.3088 28.4583 17.3604 28.44 17.4271 28.44C17.4938 28.44 17.5438 28.4583 17.5771 28.495C17.6138 28.5317 17.6321 28.585 17.6321 28.655V31.82C17.6321 31.8867 17.6154 31.94 17.5821 31.98C17.5488 32.0167 17.4971 32.035 17.4271 32.035ZM20.0463 32.035C19.983 32.035 19.9313 32.02 19.8913 31.99C19.8513 31.96 19.8196 31.915 19.7963 31.855L18.4213 28.71C18.398 28.6533 18.3913 28.6067 18.4013 28.57C18.4113 28.53 18.433 28.4983 18.4663 28.475C18.503 28.4517 18.5446 28.44 18.5913 28.44C18.6546 28.44 18.7013 28.455 18.7313 28.485C18.7646 28.5117 18.7913 28.5517 18.8113 28.605L20.1313 31.67H19.9713L21.2863 28.6C21.3096 28.55 21.338 28.5117 21.3713 28.485C21.4046 28.455 21.4513 28.44 21.5113 28.44C21.558 28.44 21.5963 28.4517 21.6263 28.475C21.6596 28.4983 21.6796 28.53 21.6863 28.57C21.6963 28.61 21.6896 28.6567 21.6663 28.71L20.2913 31.855C20.268 31.915 20.2363 31.96 20.1963 31.99C20.1596 32.02 20.1096 32.035 20.0463 32.035ZM22.6786 32C22.6052 32 22.5486 31.9817 22.5086 31.945C22.4719 31.905 22.4536 31.8483 22.4536 31.775V28.7C22.4536 28.6267 22.4719 28.5717 22.5086 28.535C22.5486 28.495 22.6052 28.475 22.6786 28.475H24.5386C24.5952 28.475 24.6386 28.49 24.6686 28.52C24.6986 28.55 24.7136 28.5917 24.7136 28.645C24.7136 28.7017 24.6986 28.745 24.6686 28.775C24.6386 28.805 24.5952 28.82 24.5386 28.82H22.8536V30.04H24.4336C24.4902 30.04 24.5336 30.055 24.5636 30.085C24.5936 30.1117 24.6086 30.1533 24.6086 30.21C24.6086 30.2667 24.5936 30.31 24.5636 30.34C24.5336 30.37 24.4902 30.385 24.4336 30.385H22.8536V31.655H24.5386C24.5952 31.655 24.6386 31.67 24.6686 31.7C24.6986 31.73 24.7136 31.7717 24.7136 31.825C24.7136 31.8817 24.6986 31.925 24.6686 31.955C24.6386 31.985 24.5952 32 24.5386 32H22.6786Z" fill="white"/>
</svg>
