<svg width="28" height="28" viewBox="0 0 28 28" fill="none" xmlns="http://www.w3.org/2000/svg">
<path d="M14 0C21.7315 0 28 6.2685 28 14C28 21.7315 21.7315 28 14 28C6.2685 28 0 21.7315 0 14C0 6.2685 6.2685 0 14 0ZM11.2175 18.6643C11.4217 19.4168 11.3995 20.1203 11.1895 20.755L11.1137 20.965C11.0857 21.0362 11.053 21.105 11.0227 21.1703C10.8593 21.5087 10.6423 21.8237 10.3752 22.1153C9.56083 23.0008 8.4245 23.3368 7.93683 23.0545C7.41183 22.7488 7.67317 21.497 8.61817 20.4995C9.63433 19.4285 11.0915 18.739 11.0915 18.739V18.7355L11.2175 18.6643ZM22.7803 5.99317C22.148 3.50467 18.0238 2.68683 14.1213 4.074C11.8008 4.89883 9.28667 6.195 7.4795 7.8855C5.32933 9.89333 4.9875 11.6433 5.12867 12.3748C5.62683 14.9543 9.16183 16.6413 10.6155 17.8932V17.9002C10.1873 18.1102 7.05017 19.684 6.31517 21.3127C5.52767 23.0277 6.43767 24.2538 7.03267 24.4102C8.87017 24.9188 10.7602 23.9902 11.7752 22.4863C12.7552 21.0152 12.6688 19.1252 12.2465 18.1977C12.8252 18.0402 13.5065 17.9702 14.3815 18.0763C16.8327 18.3563 17.3227 19.8963 17.2165 20.5263C17.1115 21.1552 16.6063 21.5227 16.4302 21.6277C16.2552 21.7338 16.2027 21.7677 16.219 21.8388C16.2365 21.9438 16.3252 21.9438 16.464 21.9263C16.6565 21.8913 17.7427 21.4013 17.7952 20.2102C17.8477 18.7052 16.4115 17.0263 13.8577 17.0602C12.8077 17.0788 12.1415 17.1663 11.6702 17.3588C11.6352 17.3063 11.599 17.2713 11.5477 17.2363C9.97267 15.5388 7.05017 14.3488 7.17267 12.0913C7.20767 11.2688 7.50517 9.1 12.7727 6.475C17.0952 4.32133 20.5438 4.9175 21.1388 6.23C21.994 8.10133 19.3002 11.585 14.8027 12.0913C13.0877 12.2838 12.1952 11.62 11.9665 11.3738C11.7227 11.1113 11.6877 11.0938 11.6002 11.1475C11.4602 11.2175 11.5477 11.445 11.6002 11.585C11.7402 11.935 12.2827 12.5475 13.2288 12.8625C14.0502 13.125 16.0638 13.2813 18.4788 12.3375C21.1902 11.2887 23.3077 8.365 22.6952 5.915L22.7803 5.99317Z" fill="#CBD5E1"/>
</svg>
