<svg width="31" height="14" viewBox="0 0 31 14" fill="none" xmlns="http://www.w3.org/2000/svg">
<path d="M20.8299 0L20.7336 0.502312C20.5845 1.45427 20.6385 1.72662 21.047 2.07991L21.4414 2.40622L21.0329 4.22791C20.7888 5.31475 20.4895 6.22559 20.2993 6.52493C20.1362 6.78315 19.9461 7.16341 19.9049 7.36768C19.8369 7.61177 19.6056 7.85715 19.2523 8.07426C18.9401 8.25155 18.3273 8.72688 17.8931 9.10843C17.5463 9.42061 17.3073 9.61203 17.1776 9.69425L16.7536 10.0296C16.6174 10.2479 16.5403 10.424 16.5108 10.5576C16.4813 10.695 16.498 10.7862 16.5416 10.853C16.584 10.9173 16.6573 10.9622 16.7575 10.9905C16.8761 11.0183 16.9982 11.0283 17.1197 11.02C17.3947 11.0013 17.6669 10.953 17.9317 10.8762C18.0216 10.8518 18.0922 10.8286 18.1539 10.8081C18.249 10.6912 18.4687 10.4702 18.8579 10.0861C19.8908 9.06732 20.2852 8.50977 19.878 8.66008C19.7277 8.71403 19.7957 8.57786 20.054 8.3055C20.5987 7.77493 20.9109 6.97328 21.5635 4.45915C22.0799 2.47431 22.0799 2.44604 22.4602 2.44604C22.6388 2.44604 23.1436 2.47688 23.1436 2.47688V0H21.9849H20.8299ZM25.7618 4.06603C25.6796 4.06603 25.5434 4.18936 25.4625 4.32554C25.3135 4.56963 25.4895 4.71866 27.7325 6.11896C29.0648 6.963 30.1388 7.68243 30.1118 7.73767C30.0848 7.7775 28.9967 8.48536 27.6927 9.30114C25.3263 10.7682 25.3135 10.7824 25.5306 11.0817C25.8029 11.435 25.5306 11.557 28.6023 9.64029L30.8325 8.213V7.13901L28.3441 5.60252C26.999 4.75977 25.8299 4.08017 25.7618 4.06603ZM5.09764 4.21634C5.02955 4.21634 3.86048 4.91007 2.51542 5.7387L0 7.27518V8.34918L2.50129 9.91265C3.88875 10.7682 5.05781 11.4761 5.11177 11.4761C5.16573 11.4761 5.27493 11.3528 5.38412 11.2038C5.54728 10.9455 5.40982 10.8363 3.1128 9.38207C0.924975 8.00874 0.693731 7.81861 0.912128 7.66958C1.0483 7.57452 2.08119 6.93474 3.1963 6.2423C5.7387 4.67883 5.60252 4.78674 5.39826 4.46043C5.31732 4.32554 5.17986 4.2035 5.09892 4.21634H5.09764ZM16.2539 4.24589C15.8787 4.24332 15.0719 4.81501 12.6567 6.787C12.5527 7.03495 12.5437 7.20581 12.5912 7.31629C12.6221 7.39209 12.6786 7.44476 12.7569 7.4833C12.834 7.52184 12.9342 7.54497 13.0447 7.55396C13.2644 7.57323 13.5239 7.53854 13.7333 7.49743L13.8746 7.46532C13.923 7.40045 13.9865 7.3484 14.0596 7.31372C14.2086 7.2315 14.8343 6.6611 15.4599 6.04959C16.5609 4.93448 16.8191 4.43089 16.3708 4.26773C16.334 4.2531 16.2934 4.24568 16.2539 4.24589ZM19.075 5.02056C18.7449 5.02955 18.1501 5.41239 17.1313 6.22559C16.62 6.64055 16.2963 6.86408 16.1228 6.91033L15.4496 7.44219C15.1966 7.90468 15.1593 8.19116 15.2261 8.34918C15.2428 8.38816 15.2671 8.42344 15.2975 8.45299C15.328 8.48254 15.3639 8.50576 15.4034 8.52133C15.5015 8.56009 15.6062 8.57971 15.7117 8.57914C15.9639 8.57645 16.2145 8.53972 16.4568 8.46994C16.5831 8.43605 16.7079 8.39662 16.8307 8.35175L16.8679 8.33634L16.936 8.30036C17.0645 8.13464 17.36 7.82246 17.73 7.46275C18.899 6.33479 19.4964 5.53315 19.3744 5.23382C19.3191 5.08865 19.2241 5.01542 19.075 5.02056ZM15.961 6.40802C15.8659 6.4183 15.6526 6.58274 15.2685 6.91932C14.7135 7.41008 14.1084 7.69271 13.899 7.56681C13.8504 7.5778 13.8015 7.58808 13.7526 7.59764C13.5393 7.64003 13.2734 7.67472 13.0357 7.65545C12.9237 7.64867 12.814 7.62123 12.712 7.57452C12.6158 7.53053 12.539 7.45284 12.4962 7.35612C12.4486 7.2405 12.4486 7.09661 12.5026 6.9129L11.6675 7.59892L9.77775 9.16239V11.6971L15.9699 6.81912C15.9687 6.76571 15.9757 6.71243 15.9905 6.6611C16.038 6.48895 16.0355 6.4016 15.961 6.4093V6.40802ZM18.6254 7.22893C18.5316 7.22893 18.3749 7.36126 18.1244 7.62719C17.7839 7.99075 17.2482 8.34276 16.9643 8.4147L16.9206 8.43783C16.874 8.45707 16.8269 8.47507 16.7793 8.49178C16.7022 8.51748 16.602 8.54831 16.4864 8.57914C16.2551 8.64209 15.9674 8.6999 15.7104 8.69348C15.5893 8.69332 15.4693 8.66977 15.3572 8.62411C15.2514 8.58052 15.1667 8.49763 15.1208 8.39286C15.0463 8.21429 15.0758 7.96378 15.239 7.60792L9.77647 11.9103V13.4584H12.1763L17.2662 9.46044C17.3985 9.31398 17.5976 9.11357 17.8661 8.86306C18.5856 8.1963 18.7487 7.96634 18.7487 7.6259C18.7487 7.36126 18.7192 7.22765 18.6254 7.22765V7.22893ZM19.8369 9.73407L19.4013 10.1683C19.1573 10.3995 18.7217 10.6847 18.4237 10.8068L18.3646 10.8325L18.3607 10.8389L18.3479 10.8518C18.3363 10.8607 18.3312 10.862 18.3222 10.8659C18.2032 10.9109 18.0824 10.9508 17.9599 10.9854C17.6877 11.0646 17.4077 11.1141 17.1249 11.1331C16.9911 11.1417 16.8569 11.13 16.7266 11.0984C16.6136 11.0735 16.5138 11.0076 16.4466 10.9134C16.3849 10.8184 16.3669 10.6912 16.4016 10.5344C16.4292 10.4228 16.4702 10.315 16.5236 10.2133L12.4165 13.4584H17.879L18.5316 12.7107C19.4283 11.665 19.8369 10.9173 19.8369 10.2775V9.73407Z" fill="#CBD5E1"/>
</svg>
