<svg width="30" height="19" viewBox="0 0 30 19" fill="none" xmlns="http://www.w3.org/2000/svg">
<path d="M14.932 0.650482C11.0666 0.650482 8.65076 2.58316 7.68442 6.44851C9.13393 4.51583 10.825 3.79108 12.7577 4.27425C13.8605 4.54966 14.6481 5.3493 15.5214 6.23591C16.9431 7.67817 18.5871 9.34752 22.1795 9.34752C26.0448 9.34752 28.4607 7.41485 29.427 3.5495C27.9775 5.48217 26.2864 6.20692 24.3538 5.72376C23.2509 5.44835 22.4634 4.6487 21.59 3.76209C20.1695 2.31983 18.5255 0.650482 14.932 0.650482ZM7.68442 9.34752C3.81907 9.34752 1.40323 11.2802 0.43689 15.1455C1.8864 13.2129 3.57749 12.4881 5.51016 12.9713C6.613 13.2467 7.40056 14.0463 8.27389 14.933C9.69561 16.3752 11.3396 18.0446 14.932 18.0446C18.7973 18.0446 21.2132 16.1119 22.1795 12.2465C20.73 14.1792 19.0389 14.904 17.1062 14.4208C16.0034 14.1454 15.2158 13.3457 14.3425 12.4591C12.922 11.0169 11.278 9.34752 7.68442 9.34752Z" fill="#CBD5E1"/>
</svg>
