<svg width="25" height="25" viewBox="0 0 25 25" fill="none" xmlns="http://www.w3.org/2000/svg">
<path d="M0 12.235V22.47C0 23.5746 0.89543 24.47 2 24.47H22.47C23.5746 24.47 24.47 23.5746 24.47 22.47V2C24.47 0.895432 23.5746 0 22.47 0H2C0.895432 0 0 0.89543 0 2V12.235ZM19.7198 11.2603C20.3417 11.4153 20.8148 11.6916 21.2502 12.1422C21.4755 12.3828 21.8099 12.8213 21.8364 12.9273C21.8446 12.9579 20.7801 13.6716 20.1358 14.0723C20.1123 14.0876 20.0185 13.9866 19.9145 13.8317C19.5984 13.3729 19.2691 13.1751 18.7644 13.1404C18.0222 13.0894 17.545 13.4779 17.5491 14.1263C17.5423 14.2858 17.5782 14.4442 17.6531 14.5851C17.8162 14.9226 18.12 15.1255 19.0703 15.5364C20.823 16.2909 21.5723 16.7874 22.0383 17.494C22.5583 18.2822 22.6755 19.5413 22.3217 20.4773C21.9343 21.4949 20.9708 22.1861 19.6147 22.4145C19.1957 22.4889 18.2016 22.4777 17.7509 22.3962C16.7681 22.2208 15.8362 21.7355 15.2611 21.0982C15.0358 20.8505 14.5964 20.201 14.6239 20.1551C14.6351 20.1388 14.736 20.0766 14.8482 20.0114C14.9583 19.9492 15.3692 19.7116 15.7577 19.4863L16.2332 19.2106C16.3616 19.1362 16.5257 19.1737 16.609 19.2966C16.815 19.6107 17.2646 20.042 17.5368 20.1857C18.3178 20.5976 19.3894 20.5395 19.9176 20.0654C20.0238 19.9759 20.1078 19.8631 20.1632 19.7358C20.2186 19.6084 20.2437 19.47 20.2367 19.3313C20.2367 19.0479 20.201 18.9235 20.0532 18.7094C19.8635 18.4381 19.4751 18.2098 18.3719 17.7306C17.1096 17.1871 16.5662 16.8496 16.0686 16.3133C15.7581 15.9594 15.5288 15.5418 15.3967 15.0898C15.3039 14.7442 15.2805 13.8775 15.3539 13.5289C15.6139 12.3084 16.5346 11.4591 17.8631 11.2062C18.2944 11.1247 19.2966 11.1553 19.7198 11.2603ZM13.9754 12.2819C13.9799 12.8341 13.5335 13.2842 12.9813 13.2842H12.384C11.5077 13.2842 10.7974 13.9945 10.7974 14.8708V21.2073C10.7974 21.8296 10.293 22.334 9.67075 22.334C9.04852 22.334 8.54411 21.8296 8.54411 21.2073V14.8757C8.54411 13.9967 7.83154 13.2842 6.95254 13.2842H6.34385C5.80102 13.2842 5.36097 12.8441 5.36097 12.3013C5.36097 12.047 5.36342 11.8122 5.36758 11.6332C5.37286 11.4065 5.50277 11.2844 5.72949 11.2813C6.38735 11.2723 7.9211 11.2684 9.68706 11.2715L12.966 11.2809C13.5196 11.2825 13.9692 11.7284 13.9754 12.2819Z" fill="#D4D4D8"/>
</svg>
