<svg width="29" height="29" viewBox="0 0 29 29" fill="none" xmlns="http://www.w3.org/2000/svg">
<path d="M3.24081 9.31225L8.9627 24.984C4.9602 23.0448 2.20354 18.9408 2.20354 14.1942C2.20354 12.4522 2.5756 10.8061 3.24081 9.31225ZM22.2894 13.591C22.2894 12.1084 21.7594 11.0824 21.3028 10.2819C20.694 9.29533 20.1246 8.45537 20.1246 7.46884C20.1246 6.36392 20.9589 5.33793 22.1371 5.33793C22.1879 5.33793 22.2386 5.34356 22.295 5.3492C20.1584 3.39305 17.3172 2.19793 14.1941 2.19793C10.0056 2.19793 6.31879 4.34576 4.17097 7.60413C4.45284 7.61541 4.71779 7.62105 4.94328 7.62105C6.19477 7.62105 8.13965 7.46884 8.13965 7.46884C8.78794 7.42938 8.86123 8.38209 8.21857 8.45537C8.21857 8.45537 7.57028 8.52866 6.8487 8.56812L11.2176 21.5565L13.8446 13.6868L11.9787 8.56812C11.3304 8.52866 10.7215 8.45537 10.7215 8.45537C10.0733 8.41591 10.1522 7.42938 10.7948 7.46884C10.7948 7.46884 12.7735 7.62105 13.9517 7.62105C15.2032 7.62105 17.1481 7.46884 17.1481 7.46884C17.7964 7.42938 17.8697 8.38209 17.227 8.45537C17.227 8.45537 16.5787 8.52866 15.8572 8.56812L20.1923 21.4607L21.3874 17.4638C21.8947 15.8065 22.2894 14.617 22.2894 13.591ZM14.4027 15.2427L10.8061 25.7C11.8828 26.0157 13.0159 26.1904 14.1941 26.1904C15.5922 26.1904 16.9283 25.948 18.1741 25.5083C18.1403 25.4576 18.1121 25.4012 18.0895 25.3448L14.4027 15.2427ZM24.719 8.43846C24.7698 8.8218 24.798 9.22769 24.798 9.67304C24.798 10.8907 24.5725 12.2549 23.8847 13.9687L20.2205 24.5612C23.7889 22.4811 26.1847 18.6195 26.1847 14.1942C26.1847 12.1084 25.6548 10.1466 24.719 8.43846ZM28.1747 14.1942C28.1747 21.906 21.9004 28.1748 14.1941 28.1748C6.48227 28.1748 0.213562 21.9004 0.213562 14.1942C0.213562 6.48231 6.48227 0.213593 14.1941 0.213593C21.9004 0.213593 28.1747 6.48231 28.1747 14.1942ZM27.5321 14.1942C27.5321 6.83746 21.5452 0.856248 14.1941 0.856248C6.83743 0.856248 0.856218 6.83746 0.856218 14.1942C0.856218 21.5509 6.84306 27.5321 14.1941 27.5321C21.5509 27.5321 27.5321 21.5509 27.5321 14.1942Z" fill="#CBD5E1"/>
</svg>
