<svg width="101" height="25" viewBox="0 0 101 25" fill="none" xmlns="http://www.w3.org/2000/svg">
<path d="M0 0H20C22.7614 0 25 2.23858 25 5V20C25 22.7614 22.7614 25 20 25H5C2.23858 25 0 22.7614 0 20V0Z" fill="#2AD883"/>
<path d="M5.44 15.64V8.56C5.44 6.32 6.56 5.2 8.8 5.2H14.14L15.48 6.24V7.8H8.92C8.52 7.8 8.32 8 8.32 8.4V15.8C8.32 16.2 8.52 16.4 8.92 16.4H15.48V17.96L14.14 19H8.8C6.56 19 5.44 17.88 5.44 15.64ZM17.7805 19V16.14H20.7605V19H17.7805Z" fill="black"/>
<path d="M30.44 15.64V8.56C30.44 6.32 31.56 5.2 33.8 5.2H39.14L40.48 6.24V7.8H33.92C33.52 7.8 33.32 8 33.32 8.4V15.8C33.32 16.2 33.52 16.4 33.92 16.4H40.48V17.96L39.14 19H33.8C31.56 19 30.44 17.88 30.44 15.64ZM42.9205 19V4.2H45.6805V8.44H48.7605C50.9205 8.44 52.0005 9.52 52.0005 11.68V19H49.2405V11.48C49.2405 11.0533 49.0271 10.84 48.6005 10.84H45.6805V19H42.9205ZM57.4755 19C55.3155 19 54.2355 17.94 54.2355 15.82C54.2355 13.7 55.3155 12.64 57.4755 12.64H60.2355V11.48C60.2355 11.0533 60.0221 10.84 59.5955 10.84H55.3555V9.34L56.5555 8.44H59.7555C61.9155 8.44 62.9955 9.52 62.9955 11.68V19H57.4755ZM56.9955 15.96C56.9955 16.3867 57.2088 16.6 57.6355 16.6H60.2355V14.76H57.6355C57.2088 14.76 56.9955 14.9733 56.9955 15.4V15.96ZM65.7116 19V9.8C66.2049 8.89333 67.1516 8.44 68.5516 8.44H70.7116L71.9116 9.34V10.84H69.2916C68.8916 10.84 68.6182 10.94 68.4716 11.14V19H65.7116ZM73.7975 15.16V4.2H76.5575V15.44C76.5575 16.2667 76.9842 16.7267 77.8375 16.82V19.2C75.1442 19.2 73.7975 17.8533 73.7975 15.16ZM79.9089 15.76V11.68C79.9089 9.52 80.9889 8.44 83.1489 8.44H85.7489C87.9089 8.44 88.9889 9.52 88.9889 11.68V14.74H82.6689V15.96C82.6689 16.3867 82.8822 16.6 83.3089 16.6H88.5889V18.1L87.3889 19H83.1489C80.9889 19 79.9089 17.92 79.9089 15.76ZM82.6689 12.62H86.2289V11.48C86.2289 11.0533 86.0156 10.84 85.5889 10.84H83.3089C82.8822 10.84 82.6689 11.0533 82.6689 11.48V12.62ZM91.3495 18.1V16.6H95.9495C96.4029 16.6 96.6295 16.3467 96.6295 15.84C96.6295 15.32 96.4429 15.0267 96.0695 14.96L93.9095 14.6C92.2029 14.3067 91.3495 13.32 91.3495 11.64C91.3495 9.50667 92.4295 8.44 94.5895 8.44H97.6895L98.8895 9.34V10.84H94.7495C94.2962 10.84 94.0695 11.0933 94.0695 11.6C94.0695 12.1333 94.2762 12.4333 94.6895 12.5L96.8295 12.86C98.5229 13.14 99.3695 14.1133 99.3695 15.78C99.3695 17.9267 98.2829 19 96.1095 19H92.5495L91.3495 18.1Z" fill="white"/>
</svg>
